<?xml version="1.0" encoding="UTF-8"?>
<!--
  Llama Menu — menu bar glyph, "on" (solid).

  Template image: pure black on transparent, tinted by AppKit.

  A head-and-neck profile, not a full body: at 18pt legs and a tail collapse
  into noise while ears + muzzle stay unmistakably llama. The ears are part of
  one continuous outline rather than shapes stacked on the head, so the "off"
  variant can stroke the identical path without drawing lines across the face.
-->
<svg width="24" height="24" viewBox="0 0 24 24" fill="none"
     xmlns="http://www.w3.org/2000/svg">
  <path fill="black" d="M4.7 11.5
    C4.25 10.25 5.45 9.15 7.45 8.55
    C9.05 8.05 10.05 7.55 10.65 6.55
    C11 5.9 11.6 5.45 12.3 5.25
    C11.7 3.6 11.6 2.2 12.35 1.85
    C13.15 1.5 13.75 2.6 13.95 4.35
    L14.1 5.35
    C14.5 5.2 14.9 5.15 15.3 5.2
    C15.55 3.6 16.2 2.15 17.05 2.1
    C17.9 2.05 18 3.35 17.5 4.9
    L17.05 6.2
    C17.5 7.15 17.75 8.3 17.85 9.6
    C18.05 12 18.5 13.6 19.1 15.6
    L19.95 20.6
    C20.15 21.8 19.55 22.45 18.45 22.45
    H13.75
    C12.75 22.45 12.15 21.85 12.05 20.75
    L11.45 14.65
    C11.35 13.65 10.75 13.2 9.55 13.2
    C7.55 13.2 5.55 12.6 4.7 11.5
    Z" />
</svg>
